<?xml version="1.0" standalone="no"?>
<!DOCTYPE svg PUBLIC "-//W3C//DTD SVG 20010904//EN"
 "http://www.w3.org/TR/2001/REC-SVG-20010904/DTD/svg10.dtd">
<svg version="1.0" xmlns="http://www.w3.org/2000/svg"
 width="280.000000pt" height="160.000000pt" viewBox="0 0 280.000000 160.000000"
 preserveAspectRatio="xMidYMid meet">

<g transform="translate(0.000000,160.000000) scale(0.100000,-0.100000)"
fill="#000000" stroke="none">
<path d="M1877 1589 c-20 -5 -54 -17 -75 -28 -21 -11 -66 -24 -100 -31 -34 -6
-81 -17 -103 -25 -65 -23 -68 -18 -14 31 42 39 44 42 15 25 -19 -12 -74 -42
-122 -66 l-86 -44 -132 6 c-119 6 -130 8 -109 20 l24 14 -25 -5 c-80 -19 -219
-37 -242 -32 l-28 6 0 -224 0 -223 29 -6 c18 -4 32 -14 36 -27 6 -18 11 -13
41 37 47 77 93 124 184 186 93 63 292 167 322 168 13 0 32 5 43 10 16 7 13 8
-13 4 -32 -5 -32 -4 29 53 34 31 71 61 83 65 11 5 91 14 176 21 97 9 134 14
100 16 l-55 2 45 10 c49 10 203 4 241 -10 l23 -9 -29 -16 c-39 -21 -24 -22 16
-1 41 21 26 38 -58 64 -68 21 -151 24 -216 9z"/>
<path d="M810 1455 l0 -45 -100 0 -100 0 0 -47 0 -48 105 0 105 0 0 77 c0 42
3 83 6 92 3 9 1 16 -5 16 -6 0 -11 -19 -11 -45z"/>
<path d="M2122 1443 c7 -18 15 -28 19 -22 4 8 8 7 12 -2 4 -10 6 -9 6 4 1 9
-4 17 -10 17 -7 0 -18 8 -25 18 -11 14 -12 12 -2 -15z"/>
<path d="M2066 1415 c-39 -31 -88 -43 -223 -55 -126 -10 -149 -19 -235 -91
-73 -60 -85 -63 -32 -6 43 44 74 86 74 99 0 4 -26 -9 -58 -30 -32 -21 -121
-66 -198 -100 -242 -109 -378 -222 -414 -345 -9 -28 -18 -43 -26 -40 -7 2 -17
-4 -23 -16 -6 -11 -23 -21 -38 -23 -25 -4 -26 -5 -9 -13 11 -5 26 -4 37 3 10
7 25 12 33 12 7 0 25 17 40 38 14 21 42 54 63 73 37 35 36 26 -3 -26 -33 -44
-64 -116 -64 -150 0 -25 -5 -32 -34 -41 -26 -8 -38 -7 -55 4 l-21 14 0 -353 0
-353 26 35 c64 85 100 191 116 343 6 61 13 113 15 115 1 2 9 -2 18 -9 12 -10
15 -10 15 0 0 7 8 10 20 7 21 -5 28 7 10 18 -20 12 -10 35 16 35 24 0 24 1 8
17 -9 9 -12 19 -7 20 6 2 -2 17 -18 33 -34 34 -40 64 -6 33 79 -73 203 -84
289 -25 88 60 124 196 83 312 -20 57 -20 60 16 60 26 0 29 2 20 14 -13 15 -8
17 89 32 42 6 43 7 20 17 l-25 9 30 10 c17 5 85 11 153 13 108 3 129 6 176 29
84 41 184 161 201 241 5 24 0 18 -25 -24 -46 -78 -115 -140 -201 -183 -85 -43
-127 -53 -149 -38 -13 9 -10 14 15 35 40 33 149 90 203 106 31 9 41 17 37 27
-3 8 11 33 35 58 22 24 40 53 40 64 0 24 1 25 -34 -5z m-713 -473 c9 -10 23
-35 32 -55 42 -101 -54 -222 -161 -203 -38 8 -104 69 -104 98 0 25 14 23 30
-7 18 -33 74 -58 114 -51 18 4 47 22 66 40 26 28 33 43 33 74 0 40 -33 102
-54 102 -6 0 -7 5 -4 10 9 15 30 12 48 -8z m-88 -47 c0 -25 -31 -43 -46 -28
-10 10 -8 17 6 33 21 24 40 21 40 -5z"/>
<path d="M615 1290 c3 -5 12 -10 18 -10 7 0 29 -8 51 -18 l39 -17 -52 -28
c-28 -16 -51 -32 -51 -36 0 -4 23 -21 52 -36 l52 -28 -52 -20 -52 -20 0 -47 0
-48 41 14 c22 8 57 23 77 33 21 10 52 22 70 26 17 3 32 10 32 15 0 5 -27 21
-60 36 -33 15 -60 30 -60 33 0 4 27 20 60 35 34 16 57 32 53 36 -4 4 -34 17
-66 29 -32 11 -76 30 -97 41 -43 22 -65 26 -55 10z"/>
<path d="M1826 1062 c16 -29 17 -34 4 -42 -12 -8 -10 -10 8 -10 31 0 29 30 -5
61 l-26 24 19 -33z"/>
<path d="M1680 984 c58 -119 63 -226 15 -346 -35 -86 -116 -192 -173 -226 -43
-25 -56 -27 -147 -27 -95 1 -138 9 -317 62 -16 5 -18 -3 -19 -58 0 -57 -22
-162 -44 -212 -6 -14 3 -11 36 11 92 62 197 82 432 82 118 0 165 4 186 14 69
36 138 153 167 286 14 62 15 88 7 149 -13 88 -72 214 -133 281 l-40 45 30 -61z"/>
<path d="M654 976 c-37 -16 -59 -69 -49 -116 21 -97 150 -143 205 -73 25 32
27 108 4 142 -17 24 -87 61 -114 60 -8 0 -29 -6 -46 -13z m124 -33 c22 -14 42
-50 42 -77 0 -33 -130 -53 -177 -27 -27 14 -31 65 -9 94 28 36 95 41 144 10z"/>
<path d="M1847 970 c18 -72 23 -100 23 -150 1 -30 5 -64 9 -75 5 -11 6 23 4
75 -4 63 -12 108 -24 135 -10 22 -16 29 -12 15z"/>
<path d="M1880 711 c0 -7 10 -30 22 -49 23 -37 24 -37 -26 -16 -17 6 -15 -24
3 -69 14 -35 14 -50 1 -42 -5 3 -10 3 -10 0 0 -8 27 -35 34 -35 12 0 5 47 -14
89 -18 40 -19 43 -2 36 9 -4 30 -10 46 -13 l30 -5 -30 39 c-17 21 -36 48 -42
59 -7 12 -12 14 -12 6z"/>
<path d="M610 601 l0 -100 110 -3 110 -3 0 103 c0 66 -4 102 -11 102 -6 0 -10
-17 -8 -42 5 -86 4 -88 -47 -88 l-46 0 4 38 c1 20 -1 37 -7 37 -5 0 -10 -16
-10 -35 0 -34 -1 -35 -39 -35 l-40 0 3 63 c1 39 -2 62 -8 62 -7 0 -11 -35 -11
-99z"/>
<path d="M1873 450 c0 -36 2 -50 4 -32 2 17 2 47 0 65 -2 17 -4 3 -4 -33z"/>
<path d="M610 456 c0 -12 10 -16 40 -16 l40 0 0 -44 0 -45 -42 -3 -43 -3 -3
-47 -3 -48 110 0 c61 0 114 0 119 0 4 0 7 23 8 50 l1 50 -48 0 c-51 0 -59 8
-59 61 0 29 1 29 56 29 40 0 55 3 52 13 -3 8 -38 13 -116 15 -96 3 -112 1
-112 -12z"/>
<path d="M610 115 c0 -75 4 -115 11 -115 6 0 10 10 9 23 -4 47 -5 47 100 47
l100 0 0 50 0 50 -100 0 -100 0 0 30 c0 17 -4 30 -10 30 -6 0 -10 -45 -10
-115z"/>
</g>
</svg>
